<?xml version="1.0" encoding="UTF-8"?>
<svg id="Capa_1" data-name="Capa 1" xmlns="http://www.w3.org/2000/svg" viewBox="0 0 207.57 195.32">
  <defs>
    <style>
      .cls-1 {
        fill: #2da9e0;
      }

      .cls-2 {
        fill: #f9f9f9;
      }

      .cls-3 {
        fill: #2eaae0;
      }
    </style>
  </defs>
  <path class="cls-1" d="M174.79,133.04c1.85,2.64-4.06,6.33-5.73,7.43-42.01,27.79-110.95,23.01-148.52-10.67-1.95-1.75-8.59-7.61-2.46-6.69,3.02.46,13.12,6.77,17.11,8.47,40.73,17.34,81.78,18.28,123.92,5.31,2.94-.9,13.57-6.88,15.69-3.86Z"/>
  <path class="cls-3" d="M175.73,151.24c-.92-.84,8.41-18.75,5.56-23.09-2.39-3.66-18.99-.28-23.36-.63-2.08-4.93,10.18-7.7,13.79-8.12,16.99-2,22.05.17,16.3,17.21-.87,2.58-8.54,18.09-12.28,14.64Z"/>
  <path class="cls-2" d="M137.93,90.04c-3.28-23.88,9.06-62.03-16.25-76.77-17.02-9.91-50.26-6.76-63.63,8.38-3.03,3.43-12.11,19.35-7.36,22.62,2.49,1.72,21.1,3.08,24.44,2.28,1.91-.46,3.73-9.07,6.93-12.06,12.54-11.7,28.26,1.18,26.03,16.34-21.95,7.14-55.85,4.07-61.04,34.24-7.46,43.28,36.67,55.35,63.83,28.46l2.67-.06c.35,4.06,8.41,12.88,12.08,12.98,3.64.1,19.9-13.3,20.64-16.55.58-2.54-7.42-13.23-8.33-19.86ZM80.94,102.38c-15.85-15.49,8.67-37.83,27.07-31.72,5.02,14.18-10.46,47.94-27.07,31.72Z"/>
</svg>