<?xml version="1.0" encoding="UTF-8"?>
<svg id="Capa_1" data-name="Capa 1" xmlns="http://www.w3.org/2000/svg" viewBox="0 0 132 117.49">
  <defs>
    <style>
      .cls-1 {
        fill: #fff;
      }

      .cls-2 {
        fill: #211f1f;
      }

      .cls-3 {
        fill: #36a9e1;
      }
    </style>
  </defs>
  <path class="cls-2" d="M68.62,40.02c.21-.34.17-5.47.04-6.3-1.14-7.27-11.76-7.6-15.24-1.99-.91,1.47-1.04,4.24-2.49,4.68-1.36.41-12.51-.91-12.89-1.5-.53-.84.24-4.06.58-5.16,4.71-15.37,32.91-18.45,42.34-6.79,6.63,8.21,2.28,26.92,3.64,37.32.51,3.9,5.48,8.52,4.31,11.04-.33.72-9.43,8.16-10.24,8.16-2.44,0-6.2-5.83-7.68-7.64-3.34,3.57-7.55,6.55-12.42,7.54-15.43,3.13-25.55-7.05-21.98-22.5,3.34-14.48,19.93-15.32,32.03-16.86Z"/>
  <path class="cls-1" d="M68.69,49.31v8.96c0,1.02-1.81,5.11-2.56,6.14-4.84,6.64-13.86,4.97-13.86-4.09s8.86-11.13,16.43-11.01Z"/>
  <path class="cls-3" d="M104.9,80.58c.44.44.37,1.13.08,1.63-1,1.74-9.53,5.95-11.73,6.88-23.93,10.12-52.84,6.48-72.9-10.13-1.01-.84-4.98-3.62-2.13-4.09,7.55,4.36,15.73,7.79,24.22,9.92,18.6,4.65,36.52,3.81,54.65-2.19,1.69-.56,5.5-2.47,6.95-2.31.26.03.68.12.86.3Z"/>
  <path class="cls-3" d="M104.4,73.1c1.81-.18,7.57-.21,8.83,1.1,1.44,1.48-.48,7.76-1.24,9.6-.57,1.38-1.61,3.28-2.52,4.45-.42.54-3.02,3.6-3.44,2.18-.16-.54,2.79-7.84,3.01-9.59.27-2.1.44-3.42-1.93-3.88-3.66-.71-7.08.45-10.55.47-1.02,0-1.13-.59-.52-1.32,1.28-1.54,6.37-2.81,8.36-3.01"/>
</svg>