<?xml version="1.0" encoding="UTF-8"?>
<svg id="Capa_1" data-name="Capa 1" xmlns="http://www.w3.org/2000/svg" viewBox="0 0 431.23 140.39">
  <defs>
    <style>
      .cls-1 {
        fill: #2da9e0;
      }

      .cls-2 {
        fill: #f9f9f9;
      }

      .cls-3 {
        fill: #2eaae0;
      }
    </style>
  </defs>
  <path class="cls-2" d="M96.49,16.56c.63-2.05,11.42-2,13.36-1.36,3.16,1.04.69,7.81,2.14,7.87,4.02-11.81,24.37-12.83,27.51-.01,1.39.28,1.28.2,2.07-.64,3.27-3.46,4.56-7.36,10.48-8.29,27.47-4.35,19.94,32.23,19.4,48.38-.36,10.72,5.4,16.23-10.47,14.56-1.56-.16-2.97-.75-4.48-1v-41.5c0-6.08-9.68-8.13-12.87-1.87-3.96,7.77.78,32.06-1.33,41.67-.72,4.29-14.48,3.03-15.59,1.48-3.6-5.01,2.04-33.08-.88-42.61-2.07-6.77-11.33-6.05-13.1,1.56s-.21,13-.19,19.73c.02,4.63.81,16.29-.24,19.84-1.34,4.56-12.16,2.66-15.8,1.7V16.56Z"/>
  <path class="cls-2" d="M339.3,75.87c-1.59,1.82-12.02,1.26-14.7.09-.63-9.76.45-19.68-.07-29.44-.18-3.33-1.05-14.65-2.57-16.42-5.5-6.4-11.32,1.59-12.21,7.72s.77,35.28-.69,37.31c-1.37,1.9-13.21,2.37-14.67.33-.72-1-.84-3.5-.94-4.85-.98-13.34-1.27-37.99-.01-51.1.49-5.06,1.52-5.51,6.56-5.53,1.21,0,8.14.83,8.44,1.14.55.56-.28,7.27.06,8.95,2.2-1.57,2.51-5.02,4.76-7.01,6.74-5.97,18.67-4.49,23.68,3.06,2.46,3.71,3.3,11.8,3.59,16.41.32,5,.43,37.44-1.23,39.35Z"/>
  <path class="cls-1" d="M260.46,94.12c2.03,2.89-4.44,6.93-6.28,8.14-46.02,30.44-121.54,25.21-162.7-11.68-2.14-1.92-9.41-8.34-2.7-7.33,3.31.5,14.37,7.42,18.74,9.28,44.61,18.99,89.59,20.02,135.75,5.82,3.22-.99,14.87-7.54,17.18-4.23Z"/>
  <path class="cls-2" d="M284.49,15.06l-.78,11.72-20.22,29.27c6-.09,21.06,1.25,22.05,8.46,2.22,16.26-3.98,8.91-11.99,6.99-6.86-1.64-14.08-1.43-20.92.2-2.82.67-9.15,4.73-10.68,2.4-1.03-1.57-.67-11.77.08-14l21.46-32.04h-17.5c-3.36,0-2.5-10.75-2.5-13h41Z"/>
  <path class="cls-3" d="M261.49,114.06c-1-.92,9.21-20.54,6.09-25.3-2.62-4-20.8-.31-25.59-.69-2.28-5.4,11.15-8.43,15.1-8.9,18.61-2.19,24.15.19,17.85,18.85-.95,2.83-9.35,19.82-13.45,16.04Z"/>
  <path class="cls-2" d="M83.58,55.48c-1.44-10.56,4.12-22.85-2.24-33.76-8.84-15.15-44.68-9.66-44.44,10.39,1.33,1.68,10.81,2.54,12.94,1.79,2.95-1.02,2.45-9.86,13.13-7.81,4.28.82,6.16,7.99,4.39,10.83-.54.88-16.47,2.87-20.15,4.35-22.55,9.11-12.73,46.12,15.29,34.29,2.34-.99,7.04-5.46,7.5-5.46.99,0,5.58,7.01,7.83,6.82,1.05-.09,9.79-6.94,10.22-7.89,1.28-2.85-3.87-9.29-4.45-13.55ZM55.51,65.56c-11.01-5.07.57-22.64,11.99-18.5,2.09,6.85-2.1,23.05-11.99,18.5Z"/>
  <path class="cls-2" d="M230.58,57.48c-1.76-12.83,4.87-33.34-8.74-41.26-9.15-5.33-27.01-3.63-34.2,4.51-1.63,1.85-6.51,10.4-3.96,12.16,1.34.92,11.34,1.66,13.13,1.23,1.03-.25,2.01-4.87,3.73-6.48,6.74-6.29,15.19.64,13.99,8.78-11.8,3.84-30.02,2.19-32.81,18.4-4.01,23.26,19.71,29.75,34.31,15.3l1.44-.03c.19,2.18,4.52,6.92,6.49,6.98,1.96.05,10.69-7.15,11.09-8.9.31-1.37-3.99-7.11-4.48-10.67ZM199.95,64.11c-8.52-8.33,4.66-20.34,14.55-17.05,2.7,7.62-5.62,25.77-14.55,17.05Z"/>
  <path class="cls-2" d="M393.55,59.5c-1.92-12.25,4.62-33.21-7.73-41.27-8.72-5.69-24.65-4.44-32.83,1.84-3.09,2.37-8.74,10.04-6.36,13.86.33.53,11.51,2.23,12.21,2.03,2.7-.75,1.7-7.49,8.4-8.68,8.9-1.58,10.17,4.27,9.26,11.78-17.01,1.13-34.07,4.56-32.05,25.55,1.65,17.18,25.28,18.8,34.55,6.47,2.93,1.71,4.03,7.46,7.95,7.03.63-.07,10.04-6.69,10.36-7.23,1.58-2.67-3.25-8.16-3.75-11.38ZM377.25,57.32c-2.06,12.23-17.31,13.61-16.84,1.26.33-8.6,10.01-10.76,17.08-10.53-.08,3.08.27,6.2-.24,9.27Z"/>
</svg>