<?xml version="1.0" encoding="UTF-8"?>
<svg id="Capa_1" data-name="Capa 1" xmlns="http://www.w3.org/2000/svg" viewBox="0 0 400 154">
  <defs>
    <style>
      .cls-1 {
        fill: #fff;
      }

      .cls-2 {
        fill: #211f1f;
      }

      .cls-3 {
        fill: #36a9e1;
      }
    </style>
  </defs>
  <g>
    <path class="cls-2" d="M85.12,35.29c.52-1.74,11.8-1.67,13.3-1.01,2.92,1.29.8,8.41,1.8,8.44,4.8-12.97,23.86-13.23,28.42,0,.63.09.66.18,1.05-.32.59-.75,1.11-2.4,2.03-3.51,9.31-11.32,27.36-6.18,28.65,9.21,1.19,14.29-.9,30.1.04,44.56.08,1.43-.32,2.49-1.84,2.77-1.77.33-9.35.29-11.27.04-.87-.11-1.55-.19-2.03-1.05l-.32-39.62c-.15-10.39-13.09-9.5-14.22,0-1.36,11.4.85,25.15-.04,36.82-.23,2.98-.23,3.63-3.33,3.84-1.92.13-11,.28-11.93-.65-.57-.57-.59-1.88-.65-2.67-1.01-12.03,1.5-26.7-.02-38.38-.51-3.96-2.68-6.58-6.87-6.48-5.37.13-6.93,5.05-7.36,9.58-1.13,12.07.92,25.37-.32,37.57-.35.63-.87.88-1.55,1.01-1.4.26-11.61.18-12.52-.25-.24-.11-1.03-.93-1.03-1.02v-58.87Z"/>
    <path class="cls-2" d="M222.68,88.13c-.87,1.07-5.89,5.19-7.28,6.28-.65.51-1.82,1.5-2.58,1.57-1.63.14-6.98-5.69-7.39-7.69-6.55,6.11-14.01,9.6-23.14,7.54-14.53-3.28-16.11-23.36-5.76-32.1,7.39-6.24,17.5-5.39,26.39-7.49,1.84-8.43-5.24-15.56-13.09-10.44-2.81,1.83-3.71,6.76-4.68,7.09-1.24.42-11.81-.68-12.76-1.4-2.5-1.89,2.78-10.5,4.63-12.36,9.21-9.24,34.31-9.82,39.97,3.59,4.67,11.05-1.44,29.54,3.56,38.94,1.07,2.01,4.04,4.19,2.16,6.5Z"/>
    <path class="cls-2" d="M56.38,56.47c.21-.34.17-5.47.04-6.3-1.14-7.27-11.76-7.6-15.24-1.99-.91,1.47-1.04,4.24-2.49,4.68-1.36.41-12.51-.91-12.89-1.5-.53-.84.24-4.06.58-5.16,4.71-15.37,32.91-18.45,42.34-6.79,6.63,8.21,2.28,26.92,3.64,37.32.51,3.9,5.48,8.52,4.31,11.04-.33.72-9.43,8.16-10.24,8.16-2.44,0-6.2-5.83-7.68-7.64-3.34,3.57-7.55,6.55-12.42,7.54-15.43,3.13-25.55-7.05-21.98-22.5,3.34-14.48,19.93-15.32,32.03-16.86Z"/>
    <path class="cls-2" d="M296.87,43.95l4.66-7.37c9.17-7.65,22.87-4.18,25.81,7.86,1.84,7.52,1.63,39.32.78,47.91-.14,1.44-.1,2.44-1.84,2.77s-9.35.29-11.27.04c-.87-.11-1.55-.19-2.03-1.05l-.31-39.62c-.07-7.36-8.15-10.66-12.45-4.37-4.6,6.71-1.52,32.18-2.32,41.71-.07.78-.07,1.79-.49,2.45-.76,1.2-10.27,1.06-12.1.88-1.03-.1-1.93.02-2.53-1.05-.75-16.97.12-33.99-.23-50.96-.05-2.46-2.03-8.71,1.78-9.44,1.52-.29,12.53-.39,12.53,1.27v8.96Z"/>
    <path class="cls-3" d="M248.31,112.98c.87.86.72,2.24.16,3.23-1.99,3.45-18.87,11.79-23.23,13.63-47.41,20.05-104.71,12.83-144.45-20.07-2-1.66-9.87-7.18-4.23-8.11,14.96,8.64,31.16,15.44,47.98,19.65,36.86,9.22,72.36,7.55,108.29-4.35,3.35-1.11,10.9-4.89,13.78-4.58.51.05,1.35.25,1.7.6Z"/>
    <path class="cls-2" d="M251.51,75.48h7.42c1.25,0,6.73,1.51,8.21,2.03,1.14.4,5.49,2.39,6.11,3.11,1.07,1.26,1.06,9.09.81,11.01-.6,4.59-7.24-.05-10.39-.93-9.13-2.53-18.31-1.86-27.15,1.28-1.74.62-4.14,2.81-5.8,1.46-1.36-1.11-.76-11.46-.32-13.73l22.64-33.42h-19.71c-.92,0-1.23-2.03-1.31-2.79-.15-1.54-.41-9.5,1.31-9.5h38.4c1.93,0,1.44,9.04.89,10.61l-21.11,30.85Z"/>
    <path class="cls-3" d="M247.3,98.16c3.59-.35,14.99-.41,17.5,2.17,2.85,2.94-.95,15.37-2.45,19.02-1.12,2.73-3.18,6.51-5,8.82-.83,1.06-5.98,7.13-6.82,4.32-.32-1.07,5.53-15.53,5.97-19,.53-4.16.87-6.77-3.83-7.68-7.26-1.41-14.03.88-20.89.93-2.03.01-2.23-1.17-1.03-2.62,2.53-3.05,12.62-5.58,16.57-5.96Z"/>
    <path class="cls-1" d="M202.87,65.75v7.94c0,1.42-1.92,6.1-2.85,7.39-4.13,5.76-12.82,4.93-13.56-2.75-1-10.51,7.78-12.72,16.41-12.57Z"/>
    <path class="cls-1" d="M56.45,65.75v8.96c0,1.02-1.81,5.11-2.56,6.14-4.84,6.64-13.86,4.97-13.86-4.09,0-9.25,8.86-11.13,16.43-11.01Z"/>
  </g>
  <path class="cls-2" d="M365.57,57.86c.21-.34.17-5.47.04-6.3-1.14-7.27-11.76-7.6-15.24-1.99-.91,1.47-1.04,4.24-2.49,4.68-1.36.41-12.51-.91-12.89-1.5-.53-.84.24-4.06.58-5.16,4.71-15.37,32.91-18.45,42.34-6.79,6.63,8.21,2.28,26.92,3.64,37.32.51,3.9,5.48,8.52,4.31,11.04-.33.72-9.43,8.16-10.24,8.16-2.44,0-6.2-5.83-7.68-7.64-3.34,3.57-7.55,6.55-12.42,7.54-15.43,3.13-25.55-7.05-21.98-22.5,3.34-14.48,19.93-15.32,32.03-16.86Z"/>
  <path class="cls-1" d="M365.64,67.15v8.96c0,1.02-1.81,5.11-2.56,6.14-4.84,6.64-13.86,4.97-13.86-4.09s8.86-11.13,16.43-11.01Z"/>
</svg>